<svg xmlns:xlink="http://www.w3.org/1999/xlink" id="Group_801" data-name="Group 801" xmlns="http://www.w3.org/2000/svg" width="41.617" height="55.97" viewBox="0 0 41.617 55.97">
  <g id="Group_788" data-name="Group 788" transform="translate(0 0)">
    <g id="Group_796" data-name="Group 796" transform="translate(0 0)">
      <path id="Path_7564" data-name="Path 7564" d="M532.756,275.195l-.008,6.256s-.027,16.01-20.71,27.689c-.021.014-.044.026-.068.038V288.552a7.912,7.912,0,0,0,7.879-7.189c.021-.238.035-.479.035-.722a7.912,7.912,0,0,0-7.911-7.912V267.92l.053.016,19.472,5.585A1.74,1.74,0,0,1,532.756,275.195Z" transform="translate(-491.16 -253.212)" fill="#DFD2C5"></path>
      <path id="Path_7565" data-name="Path 7565" d="M449.639,324.934a8.313,8.313,0,0,0,7.879-5.661c.022-.237.034-.478.034-.721a7.912,7.912,0,1,0-15.823,0c0,.243.013.484.034.723A8.316,8.316,0,0,0,449.639,324.934Z" transform="translate(-428.826 -291.124)" fill="none"></path>
      <path id="Path_7567" data-name="Path 7567" d="M340.24,280.64c0,.243.013.484.034.723a7.913,7.913,0,0,0,7.879,7.189v20.631C327.4,297.5,327.377,281.45,327.377,281.45l-.007-6.256a1.739,1.739,0,0,1,1.258-1.674l19.472-5.585.054-.016v4.808A7.912,7.912,0,0,0,340.24,280.64Z" transform="translate(-327.338 -253.212)" fill="#FFFFFF"></path>
      <path id="Path_7561" data-name="Path 7561" d="M347.814,137.28l-5.015,1.81a1.739,1.739,0,0,0-1.148,1.621l-.03,5.864-1.65.574-5.543,1.9.009-6.885-6.2,2.236a1.737,1.737,0,0,0-1.148,1.637c0,1.516.011,4.133.019,6.027a1.739,1.739,0,0,0,2.222,1.668l18.572-5.317V137.25Z" transform="translate(-327.09 -137.25)" fill="#FFFFFF"></path>
      <path id="Path_7562" data-name="Path 7562" d="M531.638,144.4l-6.217-2.243.029,6.892h0v.08l-5.508-1.972-1.688-.577-.03-5.864a1.738,1.738,0,0,0-1.149-1.625l-5.016-1.81-.089-.03h0v11.161h0l18.572,5.317a1.738,1.738,0,0,0,2.216-1.664c.008-1.9.018-4.511.019-6.027A1.736,1.736,0,0,0,531.638,144.4Z" transform="translate(-491.16 -137.25)" fill="#DFD2C5"></path>
    </g>
  </g>
</svg>