<svg xmlns:xlink="http://www.w3.org/1999/xlink" xmlns="http://www.w3.org/2000/svg" class="wpgb-input-icon" viewBox="0 0 24 24" height="16" width="16" aria-hidden="true" focusable="false"><path fill="#CCCCCC" d="M18.932 16.845a10.206 10.206 0 0 0 2.087-6.261A10.5 10.5 0 0 0 10.584 0a10.584 10.584 0 0 0 0 21.168 9.9 9.9 0 0 0 6.261-2.087l4.472 4.472a1.441 1.441 0 0 0 2.087 0 1.441 1.441 0 0 0 0-2.087zm-8.348 1.193a7.508 7.508 0 0 1-7.6-7.453 7.6 7.6 0 0 1 15.2 0 7.508 7.508 0 0 1-7.6 7.452z"></path></svg>